<svg
version="1.1"
xmlns="http://www.w3.org/2000/svg"
width="32"
height="32"
viewBox="0 0 512 512">
<g id="arr-right"></g>
<path
d="M256 0c-141.385 0-256 114.615-256 256s114.615 256 256 256 256-114.615 256-256-114.615-256-256-256zM256 464c-114.875 0-208-93.125-208-208s93.125-208 208-208 208 93.125 208 208-93.125 208-208 208z"></path>
<path
d="M177.372 353.372l45.256 45.256 142.627-142.628-142.628-142.627-45.254 45.254 97.372 97.373z"></path>
</svg>
<svg
version="1.1"
xmlns="http://www.w3.org/2000/svg"
width="32"
height="32"
viewBox="0 0 512 512">
<g id="arr-left"></g>
<path
d="M256 480c123.712 0 224-100.288 224-224s-100.288-224-224-224-224 100.288-224 224 100.288 224 224 224zM256 74c100.516 0 182 81.484 182 182s-81.484 182-182 182-182-81.484-182-182 81.484-182 182-182z"
></path>
<path
d="M324.8 170.799l-39.599-39.599-124.799 124.799 124.799 124.799 39.597-39.597-85.201-85.201z"
></path>
</svg>